<?xml version="1.0" standalone="no"?>
<!DOCTYPE svg PUBLIC "-//W3C//DTD SVG 20010904//EN"
 "http://www.w3.org/TR/2001/REC-SVG-20010904/DTD/svg10.dtd">
<svg version="1.0" xmlns="http://www.w3.org/2000/svg"
 width="1200.000000pt" height="1111.000000pt" viewBox="0 0 1200.000000 1111.000000"
 preserveAspectRatio="xMidYMid meet">

<g transform="translate(0.000000,1111.000000) scale(0.100000,-0.100000)"
fill="white" stroke="none">
<path d="M8280 11100 c-533 -32 -1063 -207 -1480 -491 -507 -345 -938 -940
-1165 -1609 -28 -81 -104 -262 -137 -324 -12 -22 10 -45 -188 195 -508 619
-896 949 -1351 1150 -248 109 -486 172 -814 215 -159 21 -561 24 -710 5 -552
-69 -1023 -250 -1410 -540 -213 -160 -462 -441 -602 -679 -334 -566 -482
-1304 -397 -1976 124 -981 683 -1989 1750 -3156 751 -820 2047 -1907 3264
-2736 254 -174 209 -144 1075 -696 l719 -458 27 27 c56 58 1289 1505 1289
1513 0 8 -418 463 -430 468 -4 1 -232 -258 -506 -577 l-499 -579 -65 36 c-321
176 -983 596 -1465 930 -1268 879 -2232 1709 -2964 2552 -935 1076 -1358 2026
-1293 2902 24 325 91 612 209 898 366 884 1208 1370 2288 1319 547 -26 1003
-218 1449 -610 175 -154 257 -244 480 -526 109 -139 202 -253 205 -253 9 1
121 251 196 438 121 302 283 595 442 801 318 408 838 720 1403 839 379 80 892
49 1275 -79 461 -153 905 -505 1210 -959 144 -215 290 -543 343 -775 44 -190
52 -286 52 -624 l0 -321 99 49 c173 87 383 135 572 129 l118 -3 10 60 c18 108
34 505 28 695 -15 447 -88 755 -261 1105 -323 653 -823 1153 -1416 1415 -399
177 -873 257 -1350 230z"/>
<path d="M8955 8549 c-33 -5 -89 -18 -125 -30 -415 -133 -766 -700 -841 -1358
-17 -156 -7 -489 20 -614 47 -214 120 -356 244 -474 212 -201 510 -218 767
-43 364 247 657 852 699 1443 22 300 -24 556 -135 755 -52 93 -180 218 -265
259 -113 56 -247 78 -364 62z"/>
<path d="M10945 7425 c-208 -37 -410 -132 -595 -280 -89 -71 -262 -252 -339
-353 -249 -329 -391 -709 -391 -1048 0 -332 173 -569 460 -630 95 -20 263 -13
373 15 256 67 524 230 757 461 285 283 470 592 556 925 25 96 28 129 28 255 1
113 -4 159 -18 210 -67 230 -212 376 -433 435 -82 23 -298 28 -398 10z"/>
<path d="M6634 7421 c-132 -21 -243 -80 -350 -186 -127 -124 -208 -264 -272
-466 -185 -581 -75 -1270 255 -1591 102 -100 169 -141 293 -179 108 -34 258
-32 352 3 102 38 174 85 257 168 260 259 395 682 378 1190 -14 422 -127 713
-345 886 -67 53 -232 135 -317 157 -77 20 -186 28 -251 18z"/>
<path d="M8110 5033 c-297 -31 -692 -172 -1061 -378 -196 -110 -544 -318 -671
-401 -348 -229 -621 -507 -723 -738 -95 -215 -93 -438 5 -586 113 -171 337
-308 680 -418 140 -45 271 -76 590 -143 530 -111 676 -151 815 -222 86 -44
152 -106 480 -448 158 -165 204 -199 339 -253 113 -46 195 -58 336 -53 144 5
242 31 373 100 321 165 446 433 464 992 20 629 -106 1277 -342 1760 -274 562
-611 800 -1125 793 -69 0 -141 -3 -160 -5z"/>
<path d="M11240 4813 c-491 -44 -966 -370 -1199 -823 -112 -217 -154 -379
-153 -590 0 -189 30 -292 115 -405 114 -151 304 -235 533 -235 133 0 225 16
371 65 390 130 777 464 967 834 88 173 121 305 120 491 -1 118 -4 145 -27 216
-72 217 -236 361 -483 422 -81 20 -182 31 -244 25z"/>
</g>
</svg>
